<?xml version="1.0" encoding="UTF-8" standalone="no"?>
<!-- Created with Inkscape (http://www.inkscape.org/) -->

<svg
   xmlns:dc="http://purl.org/dc/elements/1.1/"
   xmlns:cc="http://creativecommons.org/ns#"
   xmlns:rdf="http://www.w3.org/1999/02/22-rdf-syntax-ns#"
   xmlns:svg="http://www.w3.org/2000/svg"
   xmlns="http://www.w3.org/2000/svg"
   xmlns:sodipodi="http://sodipodi.sourceforge.net/DTD/sodipodi-0.dtd"
   xmlns:inkscape="http://www.inkscape.org/namespaces/inkscape"
   width="198.64171mm"
   height="165.61667mm"
   viewBox="0 0 703.84856 586.83071"
   id="svg2"
   version="1.1"
   inkscape:version="0.91 r13725"
   sodipodi:docname="MoundirAngry.svg"
   inkscape:export-filename="D:\Cours\IMAC\Semaine web\png\MoundirAngry.png"
   inkscape:export-xdpi="90"
   inkscape:export-ydpi="90">
  <defs
     id="defs4" />
  <sodipodi:namedview
     id="base"
     pagecolor="#ffffff"
     bordercolor="#666666"
     borderopacity="1.0"
     inkscape:pageopacity="0.0"
     inkscape:pageshadow="2"
     inkscape:zoom="0.98994949"
     inkscape:cx="174.59764"
     inkscape:cy="248.51039"
     inkscape:document-units="px"
     inkscape:current-layer="layer1"
     showgrid="false"
     inkscape:window-width="1920"
     inkscape:window-height="1001"
     inkscape:window-x="-9"
     inkscape:window-y="-9"
     inkscape:window-maximized="1"
     fit-margin-top="10"
     fit-margin-left="10"
     fit-margin-bottom="5"
     fit-margin-right="10" />
  <metadata
     id="metadata7">
    <rdf:RDF>
      <cc:Work
         rdf:about="">
        <dc:format>image/svg+xml</dc:format>
        <dc:type
           rdf:resource="http://purl.org/dc/dcmitype/StillImage" />
        <dc:title />
      </cc:Work>
    </rdf:RDF>
  </metadata>
  <g
     inkscape:label="Calque 1"
     inkscape:groupmode="layer"
     id="layer1"
     transform="translate(-3.7544291,-174.69443)">
    <path
       style="fill:#000000;fill-opacity:1;stroke:none;stroke-opacity:1"
       d="m 567.47266,327.5293 2.71093,5.4375 -0.83398,-0.51368 0.10742,1.08594 -10.52539,4.25391 12.6543,17.17578 6.56054,66.06836 25.7754,44.46875 0.1289,2.42773 -23.55273,63.56641 3.125,33.17578 c -12.83363,14.82877 -26.43511,27.66573 -42.89844,39.2832 -15.58049,-65.55581 -10.14963,-92.97607 -62.58203,-118.01562 -44.5722,-5.96447 -123.13323,-0.342 -160.5586,36.71875 -18.17052,46.81953 -15.43992,60.0535 -3.70507,118.64844 -21.13127,-5.6156 -42.59572,-12.77001 -63.2461,-21.08594 -31.07059,-19.5743 -43.64549,-26.25572 -62.07226,-39.24023 l -2.1543,-3.49415 11.65625,-35.32812 -34.4668,-104.99805 24.46289,-77.71289 -26.26367,-0.0742 -6.68945,21.14453 -16.16992,-3.67773 -15.82227,30.06055 -7.67773,0.83398 1.13672,11.59766 -11.74805,22.32031 0.26172,4.55273 -21.244143,42.48829 15.730469,39.81445 -28.949219,56.4043 9.599609,33.29101 -41.035156,69.52149 14.189453,10.48242 33.693359,-56.25977 10.88086,37.73242 -16.128906,50.43946 16.162109,7.07226 8.791015,-26.90234 8.00781,27.76758 20.16407,-5.72852 -16.33008,-58.27344 28.27539,-86.52148 -11.54297,-34.83203 0.83594,-8.10156 28.54687,40.4082 -32.14453,99.55273 16.14258,7.11719 19.26758,-58.39648 -17.12696,79.42968 16.98438,3.82032 25.0918,-112.09766 c 17.95911,17.4975 35.27094,29.43793 55.49218,41.17969 96.81703,31.80559 130.12117,34.19157 211.45508,21.4375 53.48129,-22.06754 95.98999,-53.02665 124.98438,-89.03711 l 0.66015,7.00781 -35.67773,103.67383 19.61719,-2.39063 20.14062,-57.97461 10.87695,115.47461 16.94336,-26.89453 -11.15039,-136.56445 7.19727,-20.7168 -4.1836,17.26758 20.38086,122.68164 17.99414,-19.41211 -11.10156,-59.5625 11.84571,-52.59375 6.11328,81.96485 17.63476,0.5039 -9.83203,-144.24804 6.18164,-27.44532 -22.375,-36.75195 -6.45703,-11.33984 -37.17383,-76.24805 -0.0801,-1.66602 -1.04687,-0.64258 -0.41797,-0.85937 -4.89258,-3.46875 -1.04883,-2.56055 -4.55468,-3.34961 -7.18946,-13.94726 -9.68945,3.91406 -6.12109,-4.33984 z m -19.77149,32.24023 -133.93164,34.07031 -3.70508,19.11133 46.48828,-10.84375 a 16.162441,14.142136 0 0 0 -1.98437,6.78711 16.162441,14.142136 0 0 0 16.16211,14.14258 16.162441,14.142136 0 0 0 16.16211,-14.14258 16.162441,14.142136 0 0 0 -7.75391,-12.05664 l 78.17578,-18.23633 -9.61328,-18.83203 z m -331.99609,30.71094 -10.63477,24.70508 82.08594,-0.83008 a 19.192898,17.172594 0 0 0 -6.33398,12.72265 19.192898,17.172594 0 0 0 19.19335,17.17188 19.192898,17.172594 0 0 0 19.19336,-17.17188 19.192898,17.172594 0 0 0 -6.64257,-12.97851 l 81.08398,-0.82031 -12.77148,-20.29102 -165.17383,-2.50781 z m -60.63672,103.13086 21.47852,54.8125 -2.76954,8.57812 -27.0625,-43.89453 1.72461,-8.36719 6.62891,-11.1289 z m 471.63476,11.19726 0.0449,0.0781 -0.0332,0.13281 -0.0117,-0.21094 z m -181.08007,14.98633 c 12.84948,-0.0415 25.2775,1.04183 36.53125,3.38867 25.38346,20.87731 29.99057,37.90007 55.72656,82.74024 -23.75036,16.23647 -53.45518,30.14973 -95.125,43.95312 -30.11016,9.04669 -76.27411,4.94435 -124.60742,-7.44726 7.33435,-38.8269 10.45099,-58.06823 20.78515,-95.63477 25.80201,-16.62763 68.141,-26.87545 106.68946,-27 z m 26.30664,46.13672 c -32.77908,18.72158 -44.88746,20.75183 -101.79297,16.10352 16.58122,21.34052 35.46634,50.40378 74.20898,62.84179 21.28048,-19.11445 28.93914,-53.74272 27.58399,-78.94531 z m 158.67773,1.41602 c -0.72539,3.32249 -1.43408,6.54924 -2.14258,9.74414 l -0.3457,-1.85352 2.48828,-7.89062 z m -509,16.93164 3.78516,9.57812 -15.58789,48.75196 -7.37305,-26.31055 19.17578,-32.01953 z"
       id="rect4166-9-1-5"
       inkscape:connector-curvature="0" />
    <path
       style="fill:#ff4d00;fill-opacity:1;stroke:none;stroke-opacity:1"
       d="m 295.54883,210.12891 c -62.24235,0.0764 -139.17167,3.26808 -202.060549,9.73437 22.314209,29.3808 37.826139,40.39617 39.931639,87.59766 -6.31481,46.04872 -29.36391,44.39424 -35.416014,153.96289 C 161.42937,355.38768 280.15406,341.50022 400.2168,328.32227 c 72.41799,-7.94852 138.28074,8.07115 209.85351,41.27148 -50.5744,-128.49494 -104.34713,-138.98218 -224.55273,-156.27344 -20.56504,-2.1614 -52.62334,-3.23722 -89.96875,-3.1914 z M 434.2832,530.42383 c -44.48545,0.35568 -98.94192,15.84844 -87.43164,68.11914 17.83602,-56.9168 122.91445,-43.95154 152.52735,-27.52344 -10.25707,-29.87281 -21.77062,-36.80906 -41.88868,-39.37305 -7.07186,-0.83491 -14.96898,-1.28852 -23.20703,-1.22265 z"
       id="path4138"
       inkscape:connector-curvature="0" />
  </g>
</svg>
