<?xml version="1.0" encoding="UTF-8" standalone="no"?>
<!-- Created with Inkscape (http://www.inkscape.org/) -->

<svg
   xmlns:dc="http://purl.org/dc/elements/1.1/"
   xmlns:cc="http://creativecommons.org/ns#"
   xmlns:rdf="http://www.w3.org/1999/02/22-rdf-syntax-ns#"
   xmlns:svg="http://www.w3.org/2000/svg"
   xmlns="http://www.w3.org/2000/svg"
   xmlns:sodipodi="http://sodipodi.sourceforge.net/DTD/sodipodi-0.dtd"
   xmlns:inkscape="http://www.inkscape.org/namespaces/inkscape"
   width="198.64189mm"
   height="165.61659mm"
   viewBox="0 0 703.84922 586.83044"
   id="svg2"
   version="1.1"
   inkscape:version="0.91 r13725"
   sodipodi:docname="MoundirPerplex.svg"
   inkscape:export-filename="D:\Cours\IMAC\Semaine web\png\MoundirPerplex.png"
   inkscape:export-xdpi="90"
   inkscape:export-ydpi="90">
  <defs
     id="defs4" />
  <sodipodi:namedview
     id="base"
     pagecolor="#ffffff"
     bordercolor="#666666"
     borderopacity="1.0"
     inkscape:pageopacity="0.0"
     inkscape:pageshadow="2"
     inkscape:zoom="0.24748738"
     inkscape:cx="-1246.8635"
     inkscape:cy="-173.9278"
     inkscape:document-units="px"
     inkscape:current-layer="layer1"
     showgrid="false"
     inkscape:window-width="1920"
     inkscape:window-height="1001"
     inkscape:window-x="-9"
     inkscape:window-y="-9"
     inkscape:window-maximized="1"
     fit-margin-top="10"
     fit-margin-right="10"
     fit-margin-left="10"
     fit-margin-bottom="5" />
  <metadata
     id="metadata7">
    <rdf:RDF>
      <cc:Work
         rdf:about="">
        <dc:format>image/svg+xml</dc:format>
        <dc:type
           rdf:resource="http://purl.org/dc/dcmitype/StillImage" />
        <dc:title />
      </cc:Work>
    </rdf:RDF>
  </metadata>
  <g
     inkscape:label="Calque 1"
     inkscape:groupmode="layer"
     id="layer1"
     transform="translate(-3.7536531,-174.69501)">
    <path
       style="fill:#000000;fill-opacity:1;stroke:none;stroke-opacity:1"
       d="m 588.61441,341.0074 -13.40335,-1.45222 36.80797,75.03281 31.75876,63.59196 c -0.43838,47.45262 -20.54089,114.39364 -24.24534,143.30618 l 16.16361,3.03143 32.82339,-145.72837 -22.37583,-36.75151 z"
       id="rect4166-9-1-5"
       inkscape:connector-curvature="0"
       sodipodi:nodetypes="ccccccccc" />
    <path
       style="fill:#000000;fill-opacity:1;stroke:none;stroke-opacity:1"
       d="m 575.85461,331.14577 19.17297,14.10555 25.71863,62.77946 6.83452,111.03261 -58.10265,167.24423 -19.61679,2.39252 57.10621,-165.94017 -6.28432,-118.11989 z"
       id="rect4166-9-1-1"
       inkscape:connector-curvature="0"
       sodipodi:nodetypes="ccccccccc" />
    <path
       style="fill:#000000;fill-opacity:1;stroke:none;stroke-opacity:1"
       d="m 569.34916,332.45322 33.08348,20.33005 2.89051,60.3199 48.9163,79.34268 -26.12073,82.79311 19.5585,104.93034 -17.99411,19.41295 -20.38066,-122.68216 17.44559,-72.01429 -48.6014,-83.84956 z"
       id="rect4166-9-6-7"
       inkscape:connector-curvature="0"
       sodipodi:nodetypes="ccccccccccc" />
    <path
       style="fill:#000000;fill-opacity:1;stroke:none;stroke-opacity:1"
       d="m 248.43984,645.61815 c 96.81703,31.80559 130.12028,34.19035 211.45419,21.43628 81.52205,-33.63777 137.54982,-87.93222 159.07883,-149.29155 -44.94262,65.22672 -76.13664,98.96235 -176.21768,132.11484 -44.12803,13.25839 -122.73322,-1.70961 -192.12185,-29.6525 -48.78817,-30.73628 -51.90248,-29.61331 -103.82812,-71.17091 38.27985,53.68021 65.2444,75.43333 101.63463,96.56384 z"
       id="rect4141-7"
       inkscape:connector-curvature="0"
       sodipodi:nodetypes="ccccccc" />
    <path
       style="fill:#000000;fill-opacity:1;stroke:none;stroke-opacity:1"
       d="m 370.13677,582.03441 c 56.90551,4.64831 69.01406,2.61914 101.79314,-16.10244 1.35515,25.20259 -6.30343,59.83149 -27.58391,78.94594 -38.74264,-12.43801 -57.62801,-41.50298 -74.20923,-62.8435 z"
       id="rect4159"
       inkscape:connector-curvature="0"
       sodipodi:nodetypes="cccc" />
    <ellipse
       style="fill:#000000;fill-opacity:1;stroke:none;stroke-opacity:1"
       id="path4162"
       cx="300.01529"
       cy="427.07779"
       rx="19.192898"
       ry="17.172594" />
    <ellipse
       style="fill:#000000;fill-opacity:1;stroke:none;stroke-opacity:1"
       id="path4164"
       cx="470.73108"
       cy="408.89502"
       ry="14.142136"
       rx="16.162441" />
    <path
       style="fill:#000000;fill-opacity:1;stroke:none;stroke-opacity:1"
       d="M 127.27922,401.82397 169.70562,371.5194 112.12693,482.63617 146.89222,587.53741 97.984793,737.19463 81.822359,730.12356 125.3932,593.85838 83.842664,488.69708 Z"
       id="rect4166"
       inkscape:connector-curvature="0"
       sodipodi:nodetypes="ccccccccc" />
    <path
       style="fill:#000000;fill-opacity:1;stroke:none;stroke-opacity:1"
       d="m 161.79557,359.37637 26.26386,0.0745 -24.46422,77.71265 34.46755,104.99944 -49.33178,149.51787 -16.14232,-7.11689 43.95724,-136.14103 -41.25203,-105.27875 z"
       id="rect4166-9"
       inkscape:connector-curvature="0"
       sodipodi:nodetypes="ccccccccc" />
    <path
       style="fill:#000000;fill-opacity:1;stroke:none;stroke-opacity:1"
       d="m 138.93491,376.84284 25.60934,5.82731 -17.66366,58.34217 L 134.27095,563.13428 53.377432,698.21002 39.186724,687.72917 111.90533,564.52761 104.82456,441.65676 Z"
       id="rect4166-9-1"
       inkscape:connector-curvature="0"
       sodipodi:nodetypes="ccccccccc" />
    <path
       style="fill:#000000;fill-opacity:1;stroke:none;stroke-opacity:1"
       d="m 132.92635,405.83931 -17.49071,1.89941 7.39436,75.4587 -52.206875,101.71776 44.160845,153.14627 20.16302,-5.72986 L 95.894225,592.96784 156.29901,491.54407 Z"
       id="rect4166-9-3"
       inkscape:connector-curvature="0"
       sodipodi:nodetypes="ccccccccc" />
    <path
       style="fill:#000000;fill-opacity:1;stroke:none;stroke-opacity:1"
       d="m 133.97342,451.65122 26.01241,-2.90346 -13.27193,64.36051 48.9163,79.34268 -27.77543,124.08384 -16.98396,-3.82056 24.33904,-112.87409 -55.67246,-78.7988 z"
       id="rect4166-9-6"
       inkscape:connector-curvature="0"
       sodipodi:nodetypes="ccccccccc" />
    <path
       style="fill:#ff4d00;fill-opacity:1;stroke:none;stroke-opacity:1"
       d="m 516.88836,538.74224 c -29.69233,11.74504 -156.33283,31.50253 -174.74884,36.51892 1.25666,-18.43693 40.75066,-31.76897 87.70352,-38.53684 34.35251,-4.95163 66.85729,-3.50093 87.04532,2.01792 z"
       id="rect4141-3"
       inkscape:connector-curvature="0"
       sodipodi:nodetypes="ccsc" />
    <path
       style="fill:#000000;fill-opacity:1;stroke:none;stroke-opacity:1"
       d="m 317.58415,522.66305 c 37.42537,-37.06075 115.98704,-42.68347 160.55924,-36.719 55.51694,26.5126 46.14887,55.66981 65.55414,129.96702 -31.02014,-52.44948 -34.35202,-70.36492 -61.54231,-92.7283 -45.01499,-9.38739 -108.8199,1.44151 -143.22257,23.61168 -11.23674,40.84755 -13.87146,59.72397 -22.75432,106.02965 -13.72326,-69.21336 -17.95456,-80.27564 1.40582,-130.16105 z"
       id="rect4141"
       inkscape:connector-curvature="0"
       sodipodi:nodetypes="ccccccc" />
    <path
       style="fill:#000000;fill-opacity:1;stroke:none;stroke-opacity:1"
       d="m 558.93131,337.79316 24.35213,-9.83716 29.88776,57.96671 48.29184,107.47732 10.70679,157.08145 -17.63439,-0.5027 -10.63892,-142.66546 -40.53845,-109.21764 z"
       id="rect4166-9-1-7"
       inkscape:connector-curvature="0"
       sodipodi:nodetypes="ccccccccc" />
    <path
       style="fill:#000000;fill-opacity:1;stroke:none;stroke-opacity:1"
       d="m 600.96841,351.28216 -33.49594,-23.75271 50.83738,101.91817 -37.81153,102.05204 19.9977,212.30925 16.94432,-26.89423 -13.74326,-168.30006 40.10948,-109.46833 z"
       id="rect4166-9-6-4"
       inkscape:connector-curvature="0"
       sodipodi:nodetypes="ccccccccc" />
    <path
       style="fill:#ff4d00;fill-opacity:1;stroke:none;stroke-opacity:1"
       d="M 610.07087,369.59337 C 538.4981,336.39304 472.63544,320.37365 400.21745,328.32217 280.15471,341.50012 161.42942,355.38682 98.003952,461.42297 104.05606,351.85432 127.10488,353.50963 133.41969,307.46091 c -2.1055,-47.20149 -17.61783,-58.2175 -39.932035,-87.5983 100.622205,-10.34607 237.189355,-12.30602 292.029455,-6.54227 120.2056,17.29126 173.97936,27.77809 224.55376,156.27303 z"
       id="path4138"
       inkscape:connector-curvature="0"
       sodipodi:nodetypes="csccccc" />
    <path
       style="fill:#000000;fill-opacity:1;stroke:none;stroke-opacity:1"
       d="m 414.37644,390.07923 133.69544,-34.98276 9.74243,18.76457 -147.01296,35.35571 z"
       id="rect4211-1"
       inkscape:connector-curvature="0"
       sodipodi:nodetypes="ccccc" />
    <path
       style="fill:#000000;fill-opacity:1;stroke:none;stroke-opacity:1"
       d="m 375.82732,384.90789 -165.17231,-2.50842 -10.63583,24.70581 188.58102,-1.90733 z"
       id="rect4211-1-7"
       inkscape:connector-curvature="0"
       sodipodi:nodetypes="ccccc" />
  </g>
</svg>
